<svg xmlns="http://www.w3.org/2000/svg" xmlns:xlink="http://www.w3.org/1999/xlink" id="Layer_1" x="0px" y="0px" viewBox="0 0 571.6 139" style="enable-background:new 0 0 571.6 139;" xml:space="preserve"><style type="text/css">	.st0{fill:url(#SVGID_1_);}	.st1{fill:url(#SVGID_2_);}	.st2{fill:url(#SVGID_3_);}	.st3{fill:url(#SVGID_4_);}	.st4{fill:url(#SVGID_5_);}	.st5{fill:url(#SVGID_6_);}	.st6{fill:url(#SVGID_7_);}	.st7{fill:url(#SVGID_8_);}	.st8{fill:#165AA2;}	.st9{fill:url(#SVGID_9_);}	.st10{fill:url(#SVGID_10_);}	.st11{fill:url(#SVGID_11_);}	.st12{fill:url(#SVGID_12_);}	.st13{fill:url(#SVGID_13_);}	.st14{fill:url(#SVGID_14_);}	.st15{fill:url(#SVGID_15_);}	.st16{fill:url(#SVGID_16_);}</style><g>	<g>		<linearGradient id="SVGID_1_" gradientUnits="userSpaceOnUse" x1="173.0945" y1="56.3267" x2="223.2505" y2="56.3267">			<stop offset="0" style="stop-color:#EC681C"></stop>			<stop offset="1" style="stop-color:#EC681C"></stop>		</linearGradient>		<path class="st0" d="M183.8,86.6c-4.5-1.4-8.1-3.2-10.7-5.5l4-9.1c2.6,2,5.7,3.7,9.5,5c3.7,1.3,7.5,1.9,11.3,1.9   c4.7,0,8.1-0.7,10.5-2.2c2.3-1.5,3.5-3.5,3.5-5.9c0-1.8-0.6-3.3-1.9-4.4c-1.3-1.2-2.9-2.1-4.9-2.7c-2-0.7-4.7-1.4-8.1-2.2   c-4.8-1.1-8.7-2.3-11.6-3.4c-3-1.1-5.5-2.9-7.6-5.3c-2.1-2.4-3.2-5.7-3.2-9.8c0-3.5,0.9-6.6,2.8-9.5c1.9-2.8,4.7-5.1,8.5-6.8   c3.8-1.7,8.4-2.5,14-2.5c3.8,0,7.6,0.5,11.3,1.4c3.7,1,6.9,2.3,9.6,4.1l-3.7,9.1c-2.8-1.6-5.6-2.8-8.6-3.7c-3-0.8-5.9-1.3-8.7-1.3   c-4.6,0-8,0.8-10.3,2.3c-2.2,1.6-3.4,3.6-3.4,6.2c0,1.8,0.6,3.3,1.9,4.4c1.3,1.1,2.9,2,4.9,2.7c2,0.7,4.7,1.4,8.1,2.2   c4.7,1.1,8.5,2.2,11.5,3.4c3,1.2,5.5,2.9,7.7,5.3c2.1,2.4,3.2,5.6,3.2,9.7c0,3.5-0.9,6.6-2.8,9.4c-1.9,2.8-4.7,5.1-8.6,6.7   c-3.8,1.7-8.5,2.5-14,2.5C193,88.6,188.3,87.9,183.8,86.6z"></path>		<linearGradient id="SVGID_2_" gradientUnits="userSpaceOnUse" x1="230.3385" y1="63.8189" x2="273.855" y2="63.8189">			<stop offset="0" style="stop-color:#EC681C"></stop>			<stop offset="1" style="stop-color:#EC681C"></stop>		</linearGradient>		<path class="st1" d="M268.2,44.3c3.7,3.4,5.6,8.5,5.6,15.3v28.1h-10.6v-5.8c-1.4,2.1-3.3,3.7-5.9,4.8c-2.5,1.1-5.6,1.7-9.2,1.7   c-3.6,0-6.7-0.6-9.4-1.8c-2.7-1.2-4.8-2.9-6.2-5.1c-1.5-2.2-2.2-4.6-2.2-7.4c0-4.3,1.6-7.8,4.8-10.4c3.2-2.6,8.2-3.9,15.1-3.9   h12.4V59c0-3.3-1-5.9-3-7.7c-2-1.8-5-2.7-8.9-2.7c-2.7,0-5.3,0.4-7.9,1.3c-2.6,0.8-4.8,2-6.6,3.5l-4.4-8.2   c2.5-1.9,5.5-3.4,9.1-4.4c3.5-1,7.3-1.5,11.2-1.5C259.1,39.3,264.5,41,268.2,44.3z M258,78.3c2.2-1.3,3.7-3.1,4.6-5.5v-5.6h-11.6   c-6.5,0-9.7,2.1-9.7,6.4c0,2,0.8,3.7,2.4,4.8c1.6,1.2,3.9,1.8,6.7,1.8C253.3,80.2,255.8,79.6,258,78.3z"></path>		<linearGradient id="SVGID_3_" gradientUnits="userSpaceOnUse" x1="281.8402" y1="54.1284" x2="317.0123" y2="54.1284">			<stop offset="0" style="stop-color:#EC681C"></stop>			<stop offset="1" style="stop-color:#EC681C"></stop>		</linearGradient>		<path class="st2" d="M300.6,37.3v2.9h13.2v9H301v38.6h-11.2V49.1h-7.9v-9h7.9v-3.1c0-5.1,1.5-9.2,4.5-12.2c3-3,7.2-4.4,12.7-4.4   c4.3,0,7.7,0.9,10.1,2.6l-3.1,8.4c-1.9-1.3-4-2-6.2-2C303,29.6,300.6,32.2,300.6,37.3z"></path>		<linearGradient id="SVGID_4_" gradientUnits="userSpaceOnUse" x1="316.6527" y1="63.8189" x2="365.642" y2="63.8189">			<stop offset="0" style="stop-color:#EC681C"></stop>			<stop offset="1" style="stop-color:#EC681C"></stop>		</linearGradient>		<path class="st3" d="M365.5,67.4h-37.6c0.7,3.5,2.4,6.3,5.2,8.4c2.8,2.1,6.2,3.1,10.4,3.1c5.3,0,9.6-1.7,13-5.2l6,6.9   c-2.2,2.6-4.9,4.5-8.2,5.8c-3.3,1.3-7,2-11.1,2c-5.3,0-9.9-1-13.9-3.1c-4-2.1-7.1-5-9.3-8.7c-2.2-3.7-3.3-8-3.3-12.7   c0-4.7,1.1-8.9,3.2-12.6c2.1-3.7,5.1-6.7,8.8-8.7c3.8-2.1,8-3.1,12.7-3.1c4.7,0,8.8,1,12.5,3.1c3.7,2.1,6.5,5,8.6,8.7   c2.1,3.7,3.1,8.1,3.1,13C365.6,64.8,365.6,65.9,365.5,67.4z M332.3,51.4c-2.5,2.1-4,5-4.5,8.5H355c-0.5-3.5-1.9-6.3-4.4-8.4   c-2.5-2.2-5.5-3.2-9.2-3.2C337.8,48.3,334.8,49.3,332.3,51.4z"></path>		<linearGradient id="SVGID_5_" gradientUnits="userSpaceOnUse" x1="360.8871" y1="56.3267" x2="414.1842" y2="56.3267">			<stop offset="0" style="stop-color:#EC681C"></stop>			<stop offset="1" style="stop-color:#EC681C"></stop>		</linearGradient>		<path class="st4" d="M381.7,34.8h-20.8v-9.9h53.3v9.9h-20.8v52.9h-11.7V34.8z"></path>		<linearGradient id="SVGID_6_" gradientUnits="userSpaceOnUse" x1="413.017" y1="63.8189" x2="462.0063" y2="63.8189">			<stop offset="0" style="stop-color:#EC681C"></stop>			<stop offset="1" style="stop-color:#EC681C"></stop>		</linearGradient>		<path class="st5" d="M461.8,67.4h-37.6c0.7,3.5,2.4,6.3,5.2,8.4c2.8,2.1,6.2,3.1,10.4,3.1c5.3,0,9.6-1.7,13-5.2l6,6.9   c-2.2,2.6-4.9,4.5-8.2,5.8c-3.3,1.3-7,2-11.1,2c-5.3,0-9.9-1-13.9-3.1c-4-2.1-7.1-5-9.3-8.7c-2.2-3.7-3.3-8-3.3-12.7   c0-4.7,1.1-8.9,3.2-12.6c2.1-3.7,5.1-6.7,8.8-8.7c3.8-2.1,8-3.1,12.7-3.1c4.7,0,8.8,1,12.5,3.1c3.7,2.1,6.5,5,8.6,8.7   c2.1,3.7,3.1,8.1,3.1,13C462,64.8,461.9,65.9,461.8,67.4z M428.7,51.4c-2.5,2.1-4,5-4.5,8.5h27.2c-0.5-3.5-1.9-6.3-4.4-8.4   c-2.5-2.2-5.5-3.2-9.2-3.2C434.2,48.3,431.2,49.3,428.7,51.4z"></path>		<linearGradient id="SVGID_7_" gradientUnits="userSpaceOnUse" x1="468.8257" y1="63.8189" x2="515.2129" y2="63.8189">			<stop offset="0" style="stop-color:#EC681C"></stop>			<stop offset="1" style="stop-color:#EC681C"></stop>		</linearGradient>		<path class="st6" d="M481.4,85.2c-3.9-2.1-7-5-9.2-8.7c-2.2-3.7-3.3-8-3.3-12.7s1.1-8.9,3.3-12.7c2.2-3.7,5.3-6.6,9.2-8.7   c3.9-2.1,8.4-3.1,13.4-3.1c4.7,0,8.9,1,12.4,2.9c3.6,1.9,6.2,4.7,8,8.3l-8.6,5c-1.4-2.2-3.1-3.9-5.2-5c-2.1-1.1-4.3-1.7-6.8-1.7   c-4.2,0-7.7,1.4-10.4,4.1c-2.8,2.7-4.1,6.4-4.1,10.9c0,4.5,1.4,8.2,4.1,10.9c2.7,2.7,6.2,4.1,10.5,4.1c2.5,0,4.7-0.6,6.8-1.7   c2.1-1.1,3.8-2.8,5.2-5l8.6,5c-1.9,3.6-4.6,6.4-8.1,8.3c-3.6,1.9-7.7,2.9-12.3,2.9C489.8,88.4,485.3,87.3,481.4,85.2z"></path>		<linearGradient id="SVGID_8_" gradientUnits="userSpaceOnUse" x1="524.455" y1="54.4425" x2="571.6498" y2="54.4425">			<stop offset="0" style="stop-color:#EC681C"></stop>			<stop offset="1" style="stop-color:#EC681C"></stop>		</linearGradient>		<path class="st7" d="M566.2,44.6c3.6,3.5,5.5,8.8,5.5,15.7v27.5h-11.2v-26c0-4.2-1-7.3-3-9.5c-2-2.1-4.8-3.2-8.4-3.2   c-4.1,0-7.4,1.2-9.8,3.7c-2.4,2.5-3.6,6.1-3.6,10.7v24.2h-11.2V21.2h11.2v24.2c1.9-2,4.1-3.5,6.9-4.5c2.7-1,5.8-1.6,9.1-1.6   C557.7,39.3,562.5,41,566.2,44.6z"></path>	</g>	<g>		<path class="st8" d="M179.1,115.6c0,0.3,0.1,0.5,0.3,0.7c0.2,0.2,0.4,0.3,0.7,0.3h3.4c0.3,0,0.5-0.1,0.7-0.3s0.3-0.5,0.3-0.7v1.8   c0,0.3-0.1,0.5-0.3,0.7c-0.2,0.2-0.4,0.3-0.7,0.3h-3.9h0h-3.7c0.3,0,0.5-0.1,0.7-0.3c0.2-0.2,0.3-0.5,0.3-0.7v-12.6   c0-0.4,0.1-0.7,0.2-1.1c0.1-0.3,0.3-0.6,0.6-0.9c0.2-0.2,0.5-0.4,0.9-0.6c0.3-0.1,0.7-0.2,1.1-0.2h3.9c0.3,0,0.5,0.1,0.7,0.3   c0.2,0.2,0.3,0.4,0.3,0.7v1.8c0-0.3-0.1-0.5-0.3-0.7c-0.2-0.2-0.4-0.3-0.7-0.3h-3.4c-0.3,0-0.5,0.1-0.7,0.3   c-0.2,0.2-0.3,0.4-0.3,0.7v4.5c0.1,0,0.2,0,0.3,0c0.1,0,0.2,0,0.3,0h2.7c0.3,0,0.5-0.1,0.7-0.3c0.2-0.2,0.3-0.4,0.3-0.7v1.8   c0,0.3-0.1,0.5-0.3,0.7c-0.2,0.2-0.5,0.3-0.7,0.3h-2.3c-0.3,0-0.5,0.1-0.7,0.3c-0.2,0.2-0.3,0.4-0.3,0.7V115.6z"></path>		<path class="st8" d="M200.6,118.5h-2.1c-0.3,0-0.5-0.1-0.7-0.3c-0.2-0.2-0.3-0.4-0.3-0.7v-7.1c0-0.3-0.1-0.5-0.3-0.7   c-0.2-0.2-0.4-0.3-0.7-0.3h-1.8v8.1c0,0.3-0.1,0.5-0.3,0.7c-0.2,0.2-0.4,0.3-0.7,0.3h-1.1v-9.1h-1.8c-0.3,0-0.5,0.1-0.7,0.3   c-0.2,0.2-0.3,0.4-0.3,0.7v7.1c0,0.3-0.1,0.5-0.3,0.7c-0.2,0.2-0.4,0.3-0.7,0.3h-2.1c0.3,0,0.5-0.1,0.7-0.3   c0.2-0.2,0.3-0.4,0.3-0.7v-7.3c0-0.4,0.1-0.7,0.2-1c0.1-0.3,0.3-0.6,0.6-0.9c0.2-0.2,0.5-0.4,0.9-0.6c0.3-0.1,0.7-0.2,1-0.2h6.7   c0.4,0,0.7,0.1,1,0.2c0.3,0.1,0.6,0.3,0.9,0.6c0.2,0.2,0.4,0.5,0.6,0.9c0.1,0.3,0.2,0.7,0.2,1v7.3c0,0.3,0.1,0.5,0.3,0.7   C200.1,118.4,200.3,118.5,200.6,118.5z"></path>		<path class="st8" d="M213.4,115.5c-0.2,0.6-0.6,1.1-1.1,1.6c-0.5,0.5-1.1,0.8-1.8,1c-0.7,0.2-1.5,0.3-2.3,0.4h0h-0.2   c-0.3,0-0.5-0.1-0.7-0.3c-0.2-0.2-0.3-0.4-0.3-0.7v-1.8c0,0.3,0.1,0.5,0.3,0.7c0.2,0.2,0.4,0.3,0.7,0.3h0.2c0.5,0,1-0.1,1.4-0.2   c0.4-0.1,0.8-0.3,1.1-0.6c0.3-0.3,0.6-0.6,0.8-1.1c0.2-0.4,0.3-1,0.3-1.7v0c0-0.7-0.1-1.2-0.3-1.7c-0.2-0.5-0.4-0.8-0.7-1.1   c-0.3-0.3-0.7-0.5-1.1-0.6c-0.4-0.1-0.9-0.2-1.4-0.2h-1.4c-0.3,0-0.5,0.1-0.7,0.3c-0.2,0.2-0.3,0.4-0.3,0.7v12.5   c0,0.3-0.1,0.5-0.3,0.7s-0.4,0.3-0.7,0.3h-2.2c0.3,0,0.5-0.1,0.7-0.3s0.3-0.4,0.3-0.7v-12.6c0-0.4,0.1-0.7,0.2-1.1   c0.1-0.3,0.3-0.6,0.6-0.9c0.2-0.2,0.5-0.4,0.9-0.6c0.3-0.1,0.7-0.2,1.1-0.2h1.8c0.2,0,0.4,0,0.6,0c0.2,0,0.4,0,0.5,0.1   c0.6,0.1,1.2,0.2,1.7,0.4c0.5,0.2,0.9,0.5,1.3,0.9c0.5,0.5,0.9,1,1.1,1.6c0.3,0.7,0.5,1.5,0.5,2.4v0   C213.9,113.9,213.7,114.8,213.4,115.5z"></path>		<path class="st8" d="M224.3,108.8c1,1,1.5,2.3,1.5,4v0.3c0,1.7-0.5,3-1.5,4c-0.2,0.2-0.4,0.3-0.6,0.5c-0.2,0.1-0.4,0.3-0.7,0.4   c-0.5,0.2-1,0.3-1.6,0.4c-0.4,0-0.7,0-1.1,0h0c-0.6-0.1-1.2-0.2-1.6-0.4s-0.9-0.5-1.3-0.9c-1-1-1.5-2.3-1.5-4v-0.3   c0-1.7,0.5-3,1.5-4c0.4-0.4,0.8-0.6,1.3-0.8c0.5-0.2,1-0.3,1.6-0.4h0c0.3,0,0.7,0,1.1,0c0.3,0,0.6,0.1,0.9,0.2s0.5,0.2,0.8,0.3   C223.5,108.2,223.9,108.5,224.3,108.8z M223.7,112.8c0-1-0.2-1.8-0.6-2.3s-1-0.9-1.7-1c-0.4-0.1-0.8-0.1-1.2,0   c-0.7,0.2-1.2,0.5-1.6,1c-0.4,0.5-0.6,1.3-0.6,2.3v0.3c0,1,0.2,1.8,0.6,2.3c0.4,0.5,1,0.9,1.6,1c0.4,0.1,0.8,0.1,1.2,0   c0.7-0.2,1.2-0.5,1.7-1c0.4-0.5,0.6-1.3,0.6-2.3V112.8z"></path>		<path class="st8" d="M244.6,107.5c-0.2,0-0.4,0.1-0.6,0.2c-0.2,0.1-0.3,0.3-0.4,0.5l-3.3,10.3h-1.2c-0.2,0-0.4-0.1-0.6-0.2   c-0.2-0.1-0.3-0.3-0.4-0.5l-2-5.6l-2.3,6.2h-1.2c-0.2,0-0.4-0.1-0.6-0.2c-0.2-0.1-0.3-0.3-0.4-0.5l-3.1-9.6   c-0.1-0.2-0.2-0.4-0.4-0.5c-0.2-0.1-0.4-0.2-0.6-0.2h2.1c0.2,0,0.4,0.1,0.6,0.2c0.2,0.1,0.3,0.3,0.4,0.5l1.8,5.7   c0.1,0.2,0.2,0.3,0.4,0.3s0.3-0.1,0.4-0.3l2.3-6c0.1-0.3,0.3-0.4,0.6-0.4c0.2,0,0.3,0,0.3,0.1c0.1,0.1,0.2,0.2,0.2,0.3l0.5,1.4   l1.8,4.6c0.1,0.2,0.2,0.3,0.4,0.3c0.2,0,0.3-0.1,0.4-0.3l1.8-5.7c0.1-0.2,0.2-0.4,0.4-0.5c0.2-0.1,0.4-0.2,0.6-0.2H244.6z"></path>		<path class="st8" d="M254.3,111.1v-0.7c0-0.3-0.1-0.5-0.3-0.7c-0.2-0.2-0.4-0.3-0.7-0.3h-1.3c-0.5,0-0.9,0.1-1.3,0.2   c-0.4,0.1-0.8,0.3-1.1,0.6c-0.3,0.3-0.5,0.6-0.7,1.1c-0.2,0.4-0.3,1-0.3,1.7v0.3c0,0.7,0.1,1.2,0.3,1.7c0.2,0.4,0.4,0.8,0.7,1.1   c0.3,0.3,0.7,0.5,1.1,0.6c0.4,0.1,0.9,0.2,1.3,0.2h3.4c0.3,0,0.5-0.1,0.7-0.3c0.2-0.2,0.3-0.4,0.3-0.7v1.8c0,0.3-0.1,0.5-0.3,0.7   c-0.2,0.2-0.4,0.3-0.7,0.3H252c-0.9,0-1.6-0.1-2.3-0.3c-0.7-0.2-1.2-0.5-1.7-1c-0.5-0.4-0.8-1-1.1-1.6c-0.3-0.7-0.4-1.5-0.4-2.4   v-0.3c0-0.9,0.1-1.7,0.4-2.4c0.3-0.6,0.6-1.2,1.1-1.6c0.5-0.5,1.1-0.8,1.7-1c0.7-0.2,1.4-0.3,2.3-0.3h1.8c0.4,0,0.7,0.1,1,0.2   c0.3,0.1,0.6,0.3,0.9,0.6c0.2,0.2,0.4,0.5,0.6,0.9s0.2,0.7,0.2,1v1c0,0.4-0.1,0.7-0.2,1c-0.1,0.3-0.3,0.6-0.6,0.9   c-0.2,0.2-0.5,0.4-0.9,0.6c-0.3,0.1-0.7,0.2-1,0.2h-1.9c-0.3,0-0.5-0.1-0.7-0.3c-0.2-0.2-0.3-0.4-0.3-0.7v-1.8   c0,0.3,0.1,0.5,0.3,0.7c0.2,0.2,0.4,0.3,0.7,0.3h1.4c0.3,0,0.5-0.1,0.7-0.3C254.2,111.6,254.3,111.4,254.3,111.1z"></path>		<path class="st8" d="M261,108.8c0.4-0.4,0.8-0.6,1.3-0.9c0.5-0.2,1.1-0.3,1.7-0.4c0.3,0,0.5,0.1,0.7,0.3c0.2,0.2,0.3,0.4,0.3,0.7   v0.7c-0.5,0-0.9,0.1-1.4,0.2s-0.8,0.3-1.1,0.6c-0.3,0.3-0.6,0.6-0.7,1.1c-0.2,0.4-0.3,1-0.3,1.7v4.6c0,0.3-0.1,0.5-0.3,0.7   c-0.2,0.2-0.4,0.3-0.7,0.3h-2.1c0.3,0,0.5-0.1,0.7-0.3c0.2-0.2,0.3-0.4,0.3-0.7v-4.6C259.4,111.2,259.9,109.8,261,108.8z"></path>		<path class="st8" d="M271.2,107.5c-0.2,0-0.5,0.1-0.7,0.2c-0.2,0.2-0.3,0.4-0.3,0.7v8.9c0,0.3-0.1,0.5-0.2,0.8   c-0.2,0.2-0.4,0.3-0.7,0.3H267c0.4,0,0.6-0.1,0.8-0.3c0.2-0.2,0.3-0.5,0.3-0.8v-8.9c0-0.3,0.1-0.5,0.3-0.7   c0.2-0.2,0.5-0.2,0.8-0.2H271.2z M271.2,102.1c-0.3,0-0.5,0.1-0.7,0.3c-0.2,0.2-0.3,0.4-0.3,0.7v0.5c0,0.3-0.1,0.5-0.3,0.7   c-0.2,0.2-0.4,0.3-0.7,0.3H268v-1.5c0-0.3,0.1-0.5,0.3-0.7c0.2-0.2,0.4-0.3,0.7-0.3h1.1H271.2z"></path>		<path class="st8" d="M283.8,118.5h-2.1c-0.3,0-0.5-0.1-0.7-0.3c-0.2-0.2-0.3-0.4-0.3-0.7v-7.1c0-0.3-0.1-0.5-0.3-0.7   c-0.2-0.2-0.4-0.3-0.7-0.3h-2.2c-0.3,0-0.5,0.1-0.7,0.3c-0.2,0.2-0.3,0.4-0.3,0.7v7.1c0,0.3-0.1,0.5-0.3,0.7   c-0.2,0.2-0.4,0.3-0.7,0.3h-2.1c0.3,0,0.5-0.1,0.7-0.3c0.2-0.2,0.3-0.4,0.3-0.7v-7.3c0-0.4,0.1-0.7,0.2-1c0.1-0.3,0.3-0.6,0.6-0.9   s0.5-0.4,0.9-0.6c0.3-0.1,0.7-0.2,1-0.2h3.2c0.4,0,0.7,0.1,1,0.2c0.3,0.1,0.6,0.3,0.9,0.6c0.2,0.2,0.4,0.5,0.6,0.9   c0.1,0.3,0.2,0.7,0.2,1v7.3c0,0.3,0.1,0.5,0.3,0.7C283.2,118.4,283.5,118.5,283.8,118.5z"></path>		<path class="st8" d="M296.4,110.4v10.7c0,0.7-0.2,1.3-0.6,1.8s-1,0.8-1.6,1c-0.2,0-0.4,0.1-0.6,0.1h-5.6c-0.3,0-0.5-0.1-0.8-0.3   c-0.2-0.2-0.3-0.5-0.3-0.8v-1.9c0,0.3,0.1,0.5,0.3,0.8c0.2,0.2,0.5,0.3,0.8,0.3h5.1c0.3,0,0.5-0.1,0.8-0.3   c0.2-0.2,0.3-0.5,0.3-0.7v-10.4c0-0.3-0.1-0.5-0.3-0.8c-0.2-0.2-0.5-0.3-0.8-0.3h-1.4c-0.5,0-1,0.1-1.4,0.2   c-0.4,0.1-0.8,0.3-1.2,0.6s-0.6,0.7-0.8,1.1c-0.2,0.5-0.3,1-0.3,1.7V113c0,0.7,0.1,1.3,0.3,1.7c0.2,0.5,0.4,0.8,0.8,1.1   c0.3,0.3,0.7,0.4,1.2,0.5c0.4,0.1,0.9,0.2,1.4,0.2h0.3c0.3,0,0.5,0.1,0.8,0.3c0.2,0.2,0.3,0.5,0.3,0.8v0.8h-1.3h0   c-0.9,0-1.7-0.2-2.4-0.4c-0.7-0.2-1.3-0.6-1.8-1c-0.3-0.2-0.5-0.5-0.7-0.7c-0.2-0.2-0.4-0.5-0.5-0.8c-0.3-0.7-0.5-1.6-0.5-2.5v0.2   c0-0.9,0.2-1.8,0.5-2.5c0.3-0.7,0.7-1.3,1.2-1.7c0.4-0.4,0.8-0.7,1.4-0.9c0.5-0.2,1.1-0.4,1.7-0.4c0.2,0,0.4,0,0.6-0.1   c0.2,0,0.4,0,0.6,0h1.9c0.4,0,0.8,0.1,1.1,0.2c0.3,0.1,0.6,0.4,0.9,0.6c0.3,0.3,0.5,0.6,0.6,0.9   C296.3,109.6,296.4,110,296.4,110.4z"></path>		<path class="st8" d="M316.2,110.4v2.6c0,1.7-0.5,3.1-1.6,4.1c-0.5,0.5-1.1,0.8-1.8,1c-0.7,0.2-1.5,0.3-2.3,0.4h-4.7   c-0.3,0-0.5-0.1-0.7-0.3c-0.2-0.2-0.3-0.5-0.3-0.7v-0.8v-1c0,0.3,0.1,0.5,0.3,0.7s0.4,0.3,0.7,0.3h4.7c0.5,0,1-0.1,1.4-0.2   c0.4-0.1,0.8-0.3,1.1-0.6c0.3-0.3,0.6-0.7,0.7-1.1c0.2-0.5,0.3-1,0.3-1.7v-1.8h-8.2c-0.3,0-0.5-0.1-0.7-0.3   c-0.2-0.2-0.3-0.4-0.3-0.7v-0.8v-1.8c0-1.7,0.5-3.1,1.6-4.1c0.5-0.5,1.1-0.8,1.8-1c0.7-0.2,1.5-0.3,2.3-0.4h4.7   c0.3,0,0.5,0.1,0.7,0.3c0.2,0.2,0.3,0.4,0.3,0.7v1.8c0-0.3-0.1-0.5-0.3-0.7c-0.2-0.2-0.4-0.3-0.7-0.3h-4.6c-0.5,0-1,0.1-1.4,0.2   c-0.4,0.1-0.8,0.3-1.1,0.6c-0.3,0.3-0.6,0.6-0.7,1.1c-0.2,0.5-0.3,1-0.3,1.7v1.8h8.2c0.3,0,0.5,0.1,0.7,0.3   C316.1,109.9,316.2,110.1,316.2,110.4z"></path>		<path class="st8" d="M329.2,118.5h-2.1c-0.3,0-0.5-0.1-0.7-0.3c-0.2-0.2-0.3-0.4-0.3-0.7v-7.1c0-0.3-0.1-0.5-0.3-0.7   c-0.2-0.2-0.4-0.3-0.7-0.3h-1.3c-0.5,0-0.9,0.1-1.3,0.2c-0.4,0.1-0.8,0.3-1.1,0.6c-0.3,0.3-0.6,0.6-0.7,1.1s-0.3,1-0.3,1.7v0.2   c0,0.7,0.1,1.2,0.3,1.7s0.4,0.8,0.7,1.1c0.3,0.3,0.7,0.5,1.1,0.6c0.4,0.1,0.9,0.2,1.3,0.2h0.2c0.3,0,0.5-0.1,0.7-0.3   c0.2-0.2,0.3-0.4,0.3-0.7v1.8c0,0.3-0.1,0.5-0.3,0.7c-0.2,0.2-0.4,0.3-0.7,0.3h-0.3c-0.8,0-1.6-0.1-2.3-0.3   c-0.7-0.2-1.2-0.5-1.7-1c-1-1-1.5-2.3-1.5-4v-0.2c0-1.7,0.5-3,1.5-4c0.5-0.5,1.1-0.8,1.7-1c0.7-0.2,1.4-0.3,2.3-0.3h1.8   c0.4,0,0.7,0.1,1,0.2c0.3,0.1,0.6,0.3,0.9,0.6s0.4,0.5,0.6,0.9c0.1,0.3,0.2,0.7,0.2,1v7.2c0,0.3,0.1,0.5,0.3,0.7   C328.7,118.4,329,118.5,329.2,118.5z"></path>		<path class="st8" d="M338.5,103.1v0.8c-0.1,0-0.1,0-0.2,0c-0.1,0-0.1,0-0.2,0c-0.4,0-0.7,0.1-1,0.2c-0.6,0.2-1.1,0.6-1.5,1.2   c-0.4,0.6-0.6,1.4-0.6,2.3h1.4c0.3,0,0.5,0.1,0.7,0.3c0.2,0.2,0.3,0.5,0.3,0.7v1.9c0-0.3-0.1-0.5-0.3-0.7   c-0.2-0.2-0.5-0.3-0.7-0.3h-1.4v7.9c0,0.3-0.1,0.5-0.3,0.7c-0.2,0.2-0.4,0.3-0.7,0.3h-2.2c0.3,0,0.5-0.1,0.7-0.3   c0.2-0.2,0.3-0.4,0.3-0.7v-8h-0.5c-0.3,0-0.5-0.1-0.7-0.3c-0.2-0.2-0.3-0.5-0.3-0.7v-0.9h1.6c0-0.8,0.2-1.6,0.4-2.3   c0.3-0.8,0.6-1.4,1.1-1.8c0.4-0.4,0.8-0.6,1.3-0.9c0.5-0.2,1-0.4,1.7-0.4h0h0.1c0.3,0,0.5,0.1,0.7,0.3   C338.4,102.6,338.5,102.8,338.5,103.1z"></path>		<path class="st8" d="M348.3,111.1v-0.7c0-0.3-0.1-0.5-0.3-0.7c-0.2-0.2-0.4-0.3-0.7-0.3H346c-0.5,0-0.9,0.1-1.3,0.2   c-0.4,0.1-0.8,0.3-1.1,0.6c-0.3,0.3-0.5,0.6-0.7,1.1c-0.2,0.4-0.3,1-0.3,1.7v0.3c0,0.7,0.1,1.2,0.3,1.7c0.2,0.4,0.4,0.8,0.7,1.1   c0.3,0.3,0.7,0.5,1.1,0.6c0.4,0.1,0.9,0.2,1.3,0.2h3.4c0.3,0,0.5-0.1,0.7-0.3c0.2-0.2,0.3-0.4,0.3-0.7v1.8c0,0.3-0.1,0.5-0.3,0.7   c-0.2,0.2-0.4,0.3-0.7,0.3H346c-0.9,0-1.6-0.1-2.3-0.3c-0.7-0.2-1.2-0.5-1.7-1c-0.5-0.4-0.8-1-1.1-1.6c-0.3-0.7-0.4-1.5-0.4-2.4   v-0.3c0-0.9,0.1-1.7,0.4-2.4c0.3-0.6,0.6-1.2,1.1-1.6c0.5-0.5,1.1-0.8,1.7-1c0.7-0.2,1.4-0.3,2.3-0.3h1.8c0.4,0,0.7,0.1,1,0.2   c0.3,0.1,0.6,0.3,0.9,0.6c0.2,0.2,0.4,0.5,0.6,0.9s0.2,0.7,0.2,1v1c0,0.4-0.1,0.7-0.2,1c-0.1,0.3-0.3,0.6-0.6,0.9   c-0.2,0.2-0.5,0.4-0.9,0.6c-0.3,0.1-0.7,0.2-1,0.2h-1.9c-0.3,0-0.5-0.1-0.7-0.3c-0.2-0.2-0.3-0.4-0.3-0.7v-1.8   c0,0.3,0.1,0.5,0.3,0.7c0.2,0.2,0.4,0.3,0.7,0.3h1.4c0.3,0,0.5-0.1,0.7-0.3C348.2,111.6,348.3,111.4,348.3,111.1z"></path>		<path class="st8" d="M359.7,116.7v0.7c0,0.3-0.1,0.5-0.3,0.7c-0.2,0.2-0.4,0.3-0.7,0.3h-0.1h0c-0.6-0.1-1.2-0.2-1.7-0.4   s-0.9-0.5-1.3-0.9c-1-1-1.6-2.4-1.6-4.1v-3.5h-0.5c-0.3,0-0.5-0.1-0.7-0.3c-0.2-0.2-0.3-0.5-0.3-0.7v-0.9h1.6v-4.4   c0-0.3,0.1-0.5,0.3-0.7c0.2-0.2,0.4-0.3,0.7-0.3h1.1v5.5h1.4c0.3,0,0.5,0.1,0.7,0.3c0.2,0.2,0.3,0.5,0.3,0.7v1.9   c0-0.3-0.1-0.5-0.3-0.7c-0.2-0.2-0.5-0.3-0.7-0.3h-1.4v3.5c0,1,0.2,1.8,0.6,2.3c0.4,0.5,0.9,0.9,1.6,1.1c0.3,0.1,0.7,0.2,1,0.2   c0.1,0,0.1,0,0.2,0C359.6,116.7,359.7,116.7,359.7,116.7z"></path>		<path class="st8" d="M373.9,107.5c-0.5,0-0.8,0.2-1,0.6c-0.3,0.6-0.6,1.2-0.8,1.6c-0.2,0.5-0.5,1-0.8,1.7   c-0.3,0.6-0.6,1.3-0.9,1.9c-0.7,1.5-1.5,3.3-2.4,5.3l-2,4.6c-0.2,0.4-0.5,0.6-1,0.6h-2.5c0.5,0,0.8-0.2,1-0.6l1.9-4.6   c0.1-0.2,0.1-0.4,0-0.6l-2.8-9.8c0,0,0,0,0,0c0,0,0,0,0,0c-0.1-0.2-0.2-0.4-0.4-0.6c-0.2-0.1-0.4-0.2-0.7-0.2h2.3   c0.2,0,0.5,0.1,0.7,0.2c0.2,0.2,0.3,0.3,0.4,0.6l0,0.1l1.5,5.8c0.1,0.2,0.2,0.4,0.4,0.4c0.2,0,0.4-0.1,0.5-0.3l2.7-6l0.1-0.2   c0.2-0.4,0.5-0.6,1-0.6h1.8H373.9z"></path>		<path class="st8" d="M393.8,103.1v1.8c0-0.3-0.1-0.5-0.3-0.7c-0.2-0.2-0.4-0.3-0.7-0.3h-2.5c-0.3,0-0.5,0.1-0.7,0.3   c-0.2,0.2-0.3,0.5-0.3,0.7v12.5c0,0.3,0.1,0.5,0.3,0.7c0.2,0.2,0.4,0.3,0.7,0.3H386c0.3,0,0.5-0.1,0.7-0.3   c0.2-0.2,0.3-0.4,0.3-0.7V105c0-0.3-0.1-0.5-0.3-0.7c-0.2-0.2-0.4-0.3-0.7-0.3h-2.6c-0.3,0-0.5,0.1-0.7,0.3   c-0.2,0.2-0.3,0.4-0.3,0.7v-2.1v0.1c0-0.2,0.1-0.5,0.3-0.6c0.2-0.2,0.4-0.3,0.7-0.3h9.3c0.3,0,0.5,0.1,0.7,0.3   C393.7,102.6,393.8,102.8,393.8,103.1z"></path>		<path class="st8" d="M408,118.5l-1.9,0h-0.2c-0.3,0-0.5-0.1-0.7-0.3s-0.3-0.4-0.3-0.7v-7c0-0.3-0.1-0.5-0.3-0.7   c-0.2-0.2-0.5-0.3-0.7-0.3h-1.3c-0.5,0-1,0.1-1.4,0.2c-0.4,0.1-0.8,0.3-1.1,0.6c-0.3,0.3-0.6,0.6-0.7,1.1c-0.2,0.5-0.3,1-0.3,1.7   v4.5c0,0.3-0.1,0.5-0.3,0.7c-0.2,0.2-0.4,0.3-0.7,0.3h-2.2c0.3,0,0.5-0.1,0.7-0.3c0.2-0.2,0.3-0.4,0.3-0.7v-14.3   c0-0.3-0.1-0.5-0.3-0.7c-0.2-0.2-0.4-0.3-0.7-0.3h2.2c0.3,0,0.5,0.1,0.7,0.3c0.2,0.2,0.3,0.4,0.3,0.7v5.3c0.5-0.3,1-0.5,1.6-0.6   c0.6-0.1,1.2-0.2,1.9-0.3h1.8c0.4,0,0.7,0.1,1.1,0.2c0.3,0.1,0.6,0.3,0.9,0.6c0.2,0.2,0.4,0.5,0.6,0.9c0.1,0.3,0.2,0.7,0.2,1.1   v7.2c0,0.3,0.1,0.5,0.3,0.7C407.5,118.4,407.7,118.5,408,118.5z"></path>		<path class="st8" d="M412.6,108.8c0.4-0.4,0.8-0.6,1.3-0.9c0.5-0.2,1.1-0.3,1.7-0.4c0.3,0,0.5,0.1,0.7,0.3   c0.2,0.2,0.3,0.4,0.3,0.7v0.7c-0.5,0-0.9,0.1-1.4,0.2s-0.8,0.3-1.1,0.6s-0.6,0.6-0.7,1.1c-0.2,0.4-0.3,1-0.3,1.7v4.6   c0,0.3-0.1,0.5-0.3,0.7c-0.2,0.2-0.4,0.3-0.7,0.3H410c0.3,0,0.5-0.1,0.7-0.3c0.2-0.2,0.3-0.4,0.3-0.7v-4.6   C411,111.2,411.5,109.8,412.6,108.8z"></path>		<path class="st8" d="M427.1,108.8c1,1,1.5,2.3,1.5,4v0.3c0,1.7-0.5,3-1.5,4c-0.2,0.2-0.4,0.3-0.6,0.5c-0.2,0.1-0.4,0.3-0.7,0.4   c-0.5,0.2-1,0.3-1.6,0.4c-0.4,0-0.7,0-1.1,0h0c-0.6-0.1-1.2-0.2-1.6-0.4c-0.5-0.2-0.9-0.5-1.3-0.9c-1-1-1.5-2.3-1.5-4v-0.3   c0-1.7,0.5-3,1.5-4c0.4-0.4,0.8-0.6,1.3-0.8c0.5-0.2,1-0.3,1.6-0.4h0c0.3,0,0.7,0,1.1,0c0.3,0,0.6,0.1,0.9,0.2   c0.3,0.1,0.5,0.2,0.8,0.3C426.2,108.2,426.7,108.5,427.1,108.8z M426.5,112.8c0-1-0.2-1.8-0.6-2.3s-1-0.9-1.7-1   c-0.4-0.1-0.8-0.1-1.2,0c-0.7,0.2-1.2,0.5-1.6,1c-0.4,0.5-0.6,1.3-0.6,2.3v0.3c0,1,0.2,1.8,0.6,2.3c0.4,0.5,1,0.9,1.6,1   c0.4,0.1,0.8,0.1,1.2,0c0.7-0.2,1.2-0.5,1.7-1c0.4-0.5,0.6-1.3,0.6-2.3V112.8z"></path>		<path class="st8" d="M441.1,107.5c-0.3,0-0.5,0.1-0.7,0.3c-0.2,0.2-0.3,0.4-0.3,0.7v7.3c0,0.4-0.1,0.7-0.2,1   c-0.1,0.3-0.3,0.6-0.6,0.8c-0.2,0.2-0.5,0.4-0.9,0.6c-0.3,0.1-0.7,0.2-1,0.2h-3.2c-0.4,0-0.7-0.1-1-0.2c-0.3-0.1-0.6-0.3-0.9-0.6   c-0.2-0.2-0.4-0.5-0.6-0.8c-0.1-0.3-0.2-0.7-0.2-1v-7.3c0-0.3-0.1-0.5-0.3-0.7c-0.2-0.2-0.4-0.3-0.7-0.3h2.1   c0.3,0,0.5,0.1,0.7,0.3c0.2,0.2,0.3,0.4,0.3,0.7v7.1c0,0.3,0.1,0.5,0.3,0.7c0.2,0.2,0.4,0.3,0.7,0.3h2.2c0.3,0,0.5-0.1,0.7-0.3   c0.2-0.2,0.3-0.4,0.3-0.7v-7.1c0-0.3,0.1-0.5,0.3-0.7c0.2-0.2,0.4-0.3,0.7-0.3H441.1z"></path>		<path class="st8" d="M453.7,110.4v10.7c0,0.7-0.2,1.3-0.6,1.8c-0.4,0.5-1,0.8-1.6,1c-0.2,0-0.4,0.1-0.6,0.1h-5.6   c-0.3,0-0.5-0.1-0.8-0.3c-0.2-0.2-0.3-0.5-0.3-0.8v-1.9c0,0.3,0.1,0.5,0.3,0.8c0.2,0.2,0.5,0.3,0.8,0.3h5.1c0.3,0,0.5-0.1,0.8-0.3   c0.2-0.2,0.3-0.5,0.3-0.7v-10.4c0-0.3-0.1-0.5-0.3-0.8c-0.2-0.2-0.5-0.3-0.8-0.3H449c-0.5,0-1,0.1-1.4,0.2   c-0.4,0.1-0.8,0.3-1.2,0.6c-0.3,0.3-0.6,0.7-0.8,1.1c-0.2,0.5-0.3,1-0.3,1.7V113c0,0.7,0.1,1.3,0.3,1.7c0.2,0.5,0.4,0.8,0.8,1.1   c0.3,0.3,0.7,0.4,1.2,0.5c0.4,0.1,0.9,0.2,1.4,0.2h0.3c0.3,0,0.5,0.1,0.8,0.3c0.2,0.2,0.3,0.5,0.3,0.8v0.8H449h0   c-0.9,0-1.7-0.2-2.4-0.4c-0.7-0.2-1.3-0.6-1.8-1c-0.3-0.2-0.5-0.5-0.7-0.7c-0.2-0.2-0.4-0.5-0.5-0.8c-0.3-0.7-0.5-1.6-0.5-2.5v0.2   c0-0.9,0.2-1.8,0.5-2.5c0.3-0.7,0.7-1.3,1.2-1.7c0.4-0.4,0.8-0.7,1.4-0.9c0.5-0.2,1.1-0.4,1.7-0.4c0.2,0,0.4,0,0.6-0.1   c0.2,0,0.4,0,0.6,0h1.9c0.4,0,0.8,0.1,1.1,0.2c0.3,0.1,0.6,0.4,0.9,0.6c0.3,0.3,0.5,0.6,0.6,0.9   C453.6,109.6,453.7,110,453.7,110.4z"></path>		<path class="st8" d="M468,118.5l-1.9,0h-0.2c-0.3,0-0.5-0.1-0.7-0.3s-0.3-0.4-0.3-0.7v-7c0-0.3-0.1-0.5-0.3-0.7   c-0.2-0.2-0.5-0.3-0.7-0.3h-1.3c-0.5,0-1,0.1-1.4,0.2c-0.4,0.1-0.8,0.3-1.1,0.6c-0.3,0.3-0.6,0.6-0.7,1.1c-0.2,0.5-0.3,1-0.3,1.7   v4.5c0,0.3-0.1,0.5-0.3,0.7c-0.2,0.2-0.4,0.3-0.7,0.3h-2.2c0.3,0,0.5-0.1,0.7-0.3c0.2-0.2,0.3-0.4,0.3-0.7v-14.3   c0-0.3-0.1-0.5-0.3-0.7c-0.2-0.2-0.4-0.3-0.7-0.3h2.2c0.3,0,0.5,0.1,0.7,0.3c0.2,0.2,0.3,0.4,0.3,0.7v5.3c0.5-0.3,1-0.5,1.6-0.6   c0.6-0.1,1.2-0.2,1.9-0.3h1.8c0.4,0,0.7,0.1,1.1,0.2c0.3,0.1,0.6,0.3,0.9,0.6c0.2,0.2,0.4,0.5,0.6,0.9c0.1,0.3,0.2,0.7,0.2,1.1   v7.2c0,0.3,0.1,0.5,0.3,0.7C467.4,118.4,467.7,118.5,468,118.5z"></path>		<path class="st8" d="M487.8,110.4v2.6c0,1.7-0.5,3.1-1.6,4.1c-0.5,0.5-1.1,0.8-1.8,1c-0.7,0.2-1.5,0.3-2.3,0.4h-4.7   c-0.3,0-0.5-0.1-0.7-0.3c-0.2-0.2-0.3-0.5-0.3-0.7v-0.8v-1c0,0.3,0.1,0.5,0.3,0.7s0.4,0.3,0.7,0.3h4.7c0.5,0,1-0.1,1.4-0.2   c0.4-0.1,0.8-0.3,1.1-0.6c0.3-0.3,0.6-0.7,0.7-1.1c0.2-0.5,0.3-1,0.3-1.7v-1.8h-8.2c-0.3,0-0.5-0.1-0.7-0.3   c-0.2-0.2-0.3-0.4-0.3-0.7v-0.8v-1.8c0-1.7,0.5-3.1,1.6-4.1c0.5-0.5,1.1-0.8,1.8-1c0.7-0.2,1.5-0.3,2.3-0.4h4.7   c0.3,0,0.5,0.1,0.7,0.3c0.2,0.2,0.3,0.4,0.3,0.7v1.8c0-0.3-0.1-0.5-0.3-0.7c-0.2-0.2-0.4-0.3-0.7-0.3h-4.6c-0.5,0-1,0.1-1.4,0.2   c-0.4,0.1-0.8,0.3-1.1,0.6c-0.3,0.3-0.6,0.6-0.7,1.1c-0.2,0.5-0.3,1-0.3,1.7v1.8h8.2c0.3,0,0.5,0.1,0.7,0.3   C487.7,109.9,487.8,110.1,487.8,110.4z"></path>		<path class="st8" d="M500.9,118.5h-2.1c-0.3,0-0.5-0.1-0.7-0.3c-0.2-0.2-0.3-0.4-0.3-0.7v-7.1c0-0.3-0.1-0.5-0.3-0.7   c-0.2-0.2-0.4-0.3-0.7-0.3h-1.3c-0.5,0-0.9,0.1-1.3,0.2c-0.4,0.1-0.8,0.3-1.1,0.6c-0.3,0.3-0.6,0.6-0.7,1.1   c-0.2,0.4-0.3,1-0.3,1.7v0.2c0,0.7,0.1,1.2,0.3,1.7s0.4,0.8,0.7,1.1c0.3,0.3,0.7,0.5,1.1,0.6c0.4,0.1,0.9,0.2,1.3,0.2h0.2   c0.3,0,0.5-0.1,0.7-0.3c0.2-0.2,0.3-0.4,0.3-0.7v1.8c0,0.3-0.1,0.5-0.3,0.7c-0.2,0.2-0.4,0.3-0.7,0.3h-0.3c-0.8,0-1.6-0.1-2.3-0.3   c-0.7-0.2-1.2-0.5-1.7-1c-1-1-1.5-2.3-1.5-4v-0.2c0-1.7,0.5-3,1.5-4c0.5-0.5,1.1-0.8,1.7-1c0.7-0.2,1.4-0.3,2.3-0.3h1.8   c0.4,0,0.7,0.1,1,0.2c0.3,0.1,0.6,0.3,0.9,0.6s0.4,0.5,0.6,0.9c0.1,0.3,0.2,0.7,0.2,1v7.2c0,0.3,0.1,0.5,0.3,0.7   C500.3,118.4,500.6,118.5,500.9,118.5z"></path>		<path class="st8" d="M510.1,103.1v0.8c-0.1,0-0.1,0-0.2,0s-0.1,0-0.2,0c-0.4,0-0.7,0.1-1,0.2c-0.6,0.2-1.1,0.6-1.5,1.2   c-0.4,0.6-0.6,1.4-0.6,2.3h1.4c0.3,0,0.5,0.1,0.7,0.3c0.2,0.2,0.3,0.5,0.3,0.7v1.9c0-0.3-0.1-0.5-0.3-0.7   c-0.2-0.2-0.5-0.3-0.7-0.3h-1.4v7.9c0,0.3-0.1,0.5-0.3,0.7c-0.2,0.2-0.4,0.3-0.7,0.3h-2.2c0.3,0,0.5-0.1,0.7-0.3   c0.2-0.2,0.3-0.4,0.3-0.7v-8h-0.5c-0.3,0-0.5-0.1-0.7-0.3s-0.3-0.5-0.3-0.7v-0.9h1.6c0-0.8,0.2-1.6,0.4-2.3   c0.3-0.8,0.6-1.4,1.1-1.8c0.4-0.4,0.8-0.6,1.3-0.9c0.5-0.2,1-0.4,1.6-0.4h0h0.1c0.3,0,0.5,0.1,0.7,0.3   C510,102.6,510.1,102.8,510.1,103.1z"></path>		<path class="st8" d="M519.9,111.1v-0.7c0-0.3-0.1-0.5-0.3-0.7c-0.2-0.2-0.4-0.3-0.7-0.3h-1.3c-0.5,0-0.9,0.1-1.3,0.2   c-0.4,0.1-0.8,0.3-1.1,0.6c-0.3,0.3-0.5,0.6-0.7,1.1c-0.2,0.4-0.3,1-0.3,1.7v0.3c0,0.7,0.1,1.2,0.3,1.7c0.2,0.4,0.4,0.8,0.7,1.1   c0.3,0.3,0.7,0.5,1.1,0.6c0.4,0.1,0.9,0.2,1.3,0.2h3.4c0.3,0,0.5-0.1,0.7-0.3c0.2-0.2,0.3-0.4,0.3-0.7v1.8c0,0.3-0.1,0.5-0.3,0.7   c-0.2,0.2-0.4,0.3-0.7,0.3h-3.5c-0.9,0-1.6-0.1-2.3-0.3c-0.7-0.2-1.2-0.5-1.7-1c-0.5-0.4-0.8-1-1.1-1.6c-0.3-0.7-0.4-1.5-0.4-2.4   v-0.3c0-0.9,0.1-1.7,0.4-2.4c0.3-0.6,0.6-1.2,1.1-1.6c0.5-0.5,1.1-0.8,1.7-1c0.7-0.2,1.4-0.3,2.3-0.3h1.8c0.4,0,0.7,0.1,1,0.2   c0.3,0.1,0.6,0.3,0.9,0.6s0.4,0.5,0.6,0.9c0.1,0.3,0.2,0.7,0.2,1v1c0,0.4-0.1,0.7-0.2,1c-0.1,0.3-0.3,0.6-0.6,0.9   s-0.5,0.4-0.9,0.6c-0.3,0.1-0.7,0.2-1,0.2h-1.9c-0.3,0-0.5-0.1-0.7-0.3c-0.2-0.2-0.3-0.4-0.3-0.7v-1.8c0,0.3,0.1,0.5,0.3,0.7   c0.2,0.2,0.4,0.3,0.7,0.3h1.4c0.3,0,0.5-0.1,0.7-0.3C519.8,111.6,519.9,111.4,519.9,111.1z"></path>		<path class="st8" d="M535.4,103.1v1.8c0-0.3-0.1-0.5-0.3-0.7c-0.2-0.2-0.4-0.3-0.7-0.3h-2.5c-0.3,0-0.5,0.1-0.7,0.3   c-0.2,0.2-0.3,0.5-0.3,0.7v12.5c0,0.3,0.1,0.5,0.3,0.7c0.2,0.2,0.4,0.3,0.7,0.3h-4.2c0.3,0,0.5-0.1,0.7-0.3   c0.2-0.2,0.3-0.4,0.3-0.7V105c0-0.3-0.1-0.5-0.3-0.7c-0.2-0.2-0.4-0.3-0.7-0.3h-2.6c-0.3,0-0.5,0.1-0.7,0.3   c-0.2,0.2-0.3,0.4-0.3,0.7v-2.1v0.1c0-0.2,0.1-0.5,0.3-0.6c0.2-0.2,0.4-0.3,0.7-0.3h9.3c0.3,0,0.5,0.1,0.7,0.3   C535.3,102.6,535.4,102.8,535.4,103.1z"></path>		<path class="st8" d="M545.2,111.1v-0.7c0-0.3-0.1-0.5-0.3-0.7c-0.2-0.2-0.4-0.3-0.7-0.3h-1.3c-0.5,0-0.9,0.1-1.3,0.2   c-0.4,0.1-0.8,0.3-1.1,0.6c-0.3,0.3-0.5,0.6-0.7,1.1c-0.2,0.4-0.3,1-0.3,1.7v0.3c0,0.7,0.1,1.2,0.3,1.7c0.2,0.4,0.4,0.8,0.7,1.1   c0.3,0.3,0.7,0.5,1.1,0.6c0.4,0.1,0.9,0.2,1.3,0.2h3.4c0.3,0,0.5-0.1,0.7-0.3c0.2-0.2,0.3-0.4,0.3-0.7v1.8c0,0.3-0.1,0.5-0.3,0.7   c-0.2,0.2-0.4,0.3-0.7,0.3h-3.5c-0.9,0-1.6-0.1-2.3-0.3c-0.7-0.2-1.2-0.5-1.7-1c-0.5-0.4-0.8-1-1.1-1.6c-0.3-0.7-0.4-1.5-0.4-2.4   v-0.3c0-0.9,0.1-1.7,0.4-2.4c0.3-0.6,0.6-1.2,1.1-1.6c0.5-0.5,1.1-0.8,1.7-1c0.7-0.2,1.4-0.3,2.3-0.3h1.8c0.4,0,0.7,0.1,1,0.2   c0.3,0.1,0.6,0.3,0.9,0.6s0.4,0.5,0.6,0.9c0.1,0.3,0.2,0.7,0.2,1v1c0,0.4-0.1,0.7-0.2,1c-0.1,0.3-0.3,0.6-0.6,0.9   s-0.5,0.4-0.9,0.6c-0.3,0.1-0.7,0.2-1,0.2h-1.9c-0.3,0-0.5-0.1-0.7-0.3c-0.2-0.2-0.3-0.4-0.3-0.7v-1.8c0,0.3,0.1,0.5,0.3,0.7   c0.2,0.2,0.4,0.3,0.7,0.3h1.4c0.3,0,0.5-0.1,0.7-0.3C545.1,111.6,545.2,111.4,545.2,111.1z"></path>		<path class="st8" d="M551.5,112.9v0.3c0,0.7,0.1,1.2,0.3,1.7c0.2,0.4,0.4,0.8,0.7,1.1c0.3,0.3,0.7,0.5,1.1,0.6   c0.4,0.1,0.9,0.2,1.3,0.2h1.3c0.3,0,0.5-0.1,0.7-0.3c0.2-0.2,0.3-0.4,0.3-0.7v1.8c0,0.3-0.1,0.5-0.3,0.7c-0.2,0.2-0.4,0.3-0.7,0.3   h-1.4c-0.8,0-1.6-0.1-2.3-0.3c-0.7-0.2-1.2-0.5-1.7-1c-0.5-0.5-0.8-1-1.1-1.6c-0.3-0.7-0.4-1.5-0.4-2.4v-0.3   c0-0.9,0.1-1.7,0.4-2.4c0.2-0.6,0.6-1.1,1.1-1.6c0.5-0.5,1.1-0.8,1.7-1c0.7-0.2,1.4-0.3,2.3-0.3h1.4c0.3,0,0.5,0.1,0.7,0.3   c0.2,0.2,0.3,0.4,0.3,0.7v1.8c0-0.3-0.1-0.5-0.3-0.7c-0.2-0.2-0.4-0.3-0.7-0.3h-1.3c-0.5,0-0.9,0.1-1.3,0.2   c-0.4,0.1-0.8,0.3-1.1,0.6c-0.3,0.3-0.6,0.6-0.7,1.1C551.6,111.7,551.5,112.2,551.5,112.9z"></path>		<path class="st8" d="M571.5,118.5l-1.9,0h-0.2c-0.3,0-0.5-0.1-0.7-0.3c-0.2-0.2-0.3-0.4-0.3-0.7v-7c0-0.3-0.1-0.5-0.3-0.7   c-0.2-0.2-0.5-0.3-0.7-0.3h-1.3c-0.5,0-1,0.1-1.4,0.2c-0.4,0.1-0.8,0.3-1.1,0.6c-0.3,0.3-0.6,0.6-0.7,1.1c-0.2,0.5-0.3,1-0.3,1.7   v4.5c0,0.3-0.1,0.5-0.3,0.7c-0.2,0.2-0.4,0.3-0.7,0.3h-2.2c0.3,0,0.5-0.1,0.7-0.3c0.2-0.2,0.3-0.4,0.3-0.7v-14.3   c0-0.3-0.1-0.5-0.3-0.7c-0.2-0.2-0.4-0.3-0.7-0.3h2.2c0.3,0,0.5,0.1,0.7,0.3c0.2,0.2,0.3,0.4,0.3,0.7v5.3c0.5-0.3,1-0.5,1.6-0.6   c0.6-0.1,1.2-0.2,1.9-0.3h1.8c0.4,0,0.7,0.1,1.1,0.2c0.3,0.1,0.6,0.3,0.9,0.6c0.2,0.2,0.4,0.5,0.6,0.9s0.2,0.7,0.2,1.1v7.2   c0,0.3,0.1,0.5,0.3,0.7C571,118.4,571.2,118.5,571.5,118.5z"></path>	</g>	<g>		<linearGradient id="SVGID_9_" gradientUnits="userSpaceOnUse" x1="0" y1="40.6565" x2="145.1643" y2="40.6565">			<stop offset="0" style="stop-color:#EC681C"></stop>			<stop offset="1" style="stop-color:#EC681C"></stop>		</linearGradient>		<path class="st9" d="M132.7,70.2c-0.7-19.4-10.7-36.5-25.7-47l0.5-5.4l-12.1-7.4L90,15c-2.2-0.7-4.5-1.2-6.8-1.6l-2.8-13   C77.8,0.1,75.2,0,72.6,0s-5.2,0.1-7.8,0.4l-2.8,13c-2.3,0.4-4.6,1-6.8,1.6l-5.4-4.5l-12.1,7.4l0.5,5.4   c-14.9,10.5-24.9,27.5-25.7,47L0,72.6v8.7h27.5v-8.7c0-24.9,20.2-45,45-45c24.9,0,45,20.2,45,45v8.7h27.5v-8.7L132.7,70.2z"></path>		<g>			<linearGradient id="SVGID_10_" gradientUnits="userSpaceOnUse" x1="28.9098" y1="86.8006" x2="28.9098" y2="157.1821">				<stop offset="0" style="stop-color:#1359A1"></stop>				<stop offset="1" style="stop-color:#4B78BC"></stop>			</linearGradient>			<path class="st10" d="M45.4,108.6c-0.3-0.3-0.7-0.6-1.1-0.9l0,0C38,102.6,33.1,95.8,30.2,88H14.5c0.4,1.7,1,3.4,1.5,5l-9.8,8.9    c2.1,4.8,4.7,9.3,7.8,13.5l12.7-4c2.2,2.6,4.6,5,7.1,7.1l-4,12.7c4.2,3.1,8.7,5.7,13.5,7.8l3.2-3.5    C53.6,127.8,53.2,115.6,45.4,108.6z"></path>			<linearGradient id="SVGID_11_" gradientUnits="userSpaceOnUse" x1="116.3694" y1="86.8006" x2="116.3694" y2="157.1821">				<stop offset="0" style="stop-color:#1359A1"></stop>				<stop offset="1" style="stop-color:#4B78BC"></stop>			</linearGradient>			<path class="st11" d="M130.8,88h-15.7c-2.8,7.8-7.8,14.6-14.1,19.8l0,0c-0.4,0.3-0.7,0.6-1.1,0.9c-7.8,7-8.1,19.1-1.1,26.9    l3.2,3.5c4.8-2.1,9.3-4.7,13.5-7.8l-4-12.7c2.6-2.2,5-4.6,7.1-7.1l12.7,4c3.1-4.2,5.7-8.7,7.8-13.5l-9.8-8.9    C129.8,91.3,130.3,89.7,130.8,88z"></path>		</g>		<g>			<linearGradient id="SVGID_12_" gradientUnits="userSpaceOnUse" x1="71.7609" y1="87.1786" x2="71.7609" y2="149.7834">				<stop offset="0" style="stop-color:#1359A1"></stop>				<stop offset="1" style="stop-color:#4B78BC"></stop>			</linearGradient>			<rect x="59.9" y="123.7" class="st12" width="23.8" height="5.4"></rect>		</g>		<linearGradient id="SVGID_13_" gradientUnits="userSpaceOnUse" x1="56.4653" y1="64.9115" x2="56.4653" y2="131.0077">			<stop offset="0" style="stop-color:#1359A1"></stop>			<stop offset="1" style="stop-color:#4B78BC"></stop>		</linearGradient>		<path class="st13" d="M56.9,94.4V82.9c3.9-0.9,6.8-4.3,6.8-8.5c0-4.8-3.9-8.7-8.7-8.7c-4.8,0-8.7,3.9-8.7,8.7   c0,4.1,2.9,7.6,6.8,8.5V96l9.8,9.8v16.2h3.9v-17.8L56.9,94.4z"></path>		<g>			<linearGradient id="SVGID_14_" gradientUnits="userSpaceOnUse" x1="72.4853" y1="41.8139" x2="72.4853" y2="134.6856">				<stop offset="0" style="stop-color:#EC681C"></stop>				<stop offset="1" style="stop-color:#EC681C"></stop>			</linearGradient>			<path class="st14" d="M72.5,42.9c-4.8,0-8.7,3.9-8.7,8.7c0,4.1,2.9,7.6,6.8,8.5v61.9h3.9V60.1c3.9-0.9,6.8-4.3,6.8-8.5    C81.2,46.8,77.3,42.9,72.5,42.9z M72.5,57.2c-3.1,0-5.6-2.5-5.6-5.6c0-3.1,2.5-5.6,5.6-5.6c3.1,0,5.6,2.5,5.6,5.6    C78,54.7,75.6,57.2,72.5,57.2z"></path>		</g>		<linearGradient id="SVGID_15_" gradientUnits="userSpaceOnUse" x1="88.5055" y1="64.9115" x2="88.5055" y2="131.0077">			<stop offset="0" style="stop-color:#1359A1"></stop>			<stop offset="1" style="stop-color:#4B78BC"></stop>		</linearGradient>		<path class="st15" d="M90,65.7c-4.8,0-8.7,3.9-8.7,8.7c0,4.1,2.9,7.6,6.8,8.5v11.6l-9.8,9.8v17.8h3.8v-16.2l9.8-9.8V82.9   c3.9-0.9,6.8-4.3,6.8-8.5C98.7,69.6,94.8,65.7,90,65.7z"></path>		<g>			<linearGradient id="SVGID_16_" gradientUnits="userSpaceOnUse" x1="71.7609" y1="64.5193" x2="71.7609" y2="154.3037">				<stop offset="0" style="stop-color:#1359A1"></stop>				<stop offset="1" style="stop-color:#4B78BC"></stop>			</linearGradient>			<path class="st16" d="M74.3,139h-5.1c-4.3,0-7.7-3.5-7.7-7.7l0,0H82l0,0C82,135.5,78.6,139,74.3,139z"></path>		</g>	</g></g></svg>